<mxfile host="app.diagrams.net" modified="2023-06-15T08:12:43.246Z" agent="Mozilla/5.0 (Macintosh; Intel Mac OS X 10_15_7) AppleWebKit/605.1.15 (KHTML, like Gecko) Version/16.5 Safari/605.1.15" etag="WWyV74UopxgW04fIlb4A" version="21.4.0" type="github">
  <diagram name="第 1 页" id="qK7wNJcPvzqaxhDZkS_l">
    <mxGraphModel dx="778" dy="1708" grid="1" gridSize="10" guides="1" tooltips="1" connect="1" arrows="1" fold="1" page="1" pageScale="1" pageWidth="827" pageHeight="1169" math="0" shadow="0">
      <root>
        <mxCell id="0" />
        <mxCell id="1" parent="0" />
        <mxCell id="hcQHmx9xs623-cWxPbAC-6" style="edgeStyle=orthogonalEdgeStyle;rounded=0;orthogonalLoop=1;jettySize=auto;html=1;entryX=0.5;entryY=0;entryDx=0;entryDy=0;labelBackgroundColor=none;strokeColor=#A8201A;fontColor=default;" edge="1" parent="1" source="hcQHmx9xs623-cWxPbAC-1" target="hcQHmx9xs623-cWxPbAC-2">
          <mxGeometry relative="1" as="geometry" />
        </mxCell>
        <mxCell id="hcQHmx9xs623-cWxPbAC-7" style="edgeStyle=orthogonalEdgeStyle;rounded=0;orthogonalLoop=1;jettySize=auto;html=1;entryX=0.5;entryY=0;entryDx=0;entryDy=0;labelBackgroundColor=none;strokeColor=#A8201A;fontColor=default;" edge="1" parent="1" source="hcQHmx9xs623-cWxPbAC-1" target="hcQHmx9xs623-cWxPbAC-3">
          <mxGeometry relative="1" as="geometry" />
        </mxCell>
        <mxCell id="hcQHmx9xs623-cWxPbAC-1" value="label&lt;br&gt;id&lt;br&gt;url&lt;br&gt;children" style="rounded=1;whiteSpace=wrap;html=1;labelBackgroundColor=none;fillColor=#FAE5C7;strokeColor=#0F8B8D;fontColor=#143642;" vertex="1" parent="1">
          <mxGeometry x="240" y="-500" width="120" height="60" as="geometry" />
        </mxCell>
        <mxCell id="hcQHmx9xs623-cWxPbAC-2" value="label&lt;br&gt;id&lt;br&gt;url &amp;nbsp;...&lt;br&gt;children" style="rounded=1;whiteSpace=wrap;html=1;labelBackgroundColor=none;fillColor=#FAE5C7;strokeColor=#0F8B8D;fontColor=#143642;" vertex="1" parent="1">
          <mxGeometry x="150" y="-390" width="120" height="60" as="geometry" />
        </mxCell>
        <mxCell id="hcQHmx9xs623-cWxPbAC-8" style="edgeStyle=orthogonalEdgeStyle;rounded=0;orthogonalLoop=1;jettySize=auto;html=1;entryX=0.583;entryY=-0.017;entryDx=0;entryDy=0;entryPerimeter=0;labelBackgroundColor=none;strokeColor=#A8201A;fontColor=default;" edge="1" parent="1" source="hcQHmx9xs623-cWxPbAC-3" target="hcQHmx9xs623-cWxPbAC-4">
          <mxGeometry relative="1" as="geometry" />
        </mxCell>
        <mxCell id="hcQHmx9xs623-cWxPbAC-9" style="edgeStyle=orthogonalEdgeStyle;rounded=0;orthogonalLoop=1;jettySize=auto;html=1;labelBackgroundColor=none;strokeColor=#A8201A;fontColor=default;" edge="1" parent="1" source="hcQHmx9xs623-cWxPbAC-3" target="hcQHmx9xs623-cWxPbAC-5">
          <mxGeometry relative="1" as="geometry" />
        </mxCell>
        <mxCell id="hcQHmx9xs623-cWxPbAC-3" value="label&lt;br&gt;id&lt;br&gt;url&lt;br&gt;children" style="rounded=1;whiteSpace=wrap;html=1;labelBackgroundColor=none;fillColor=#FAE5C7;strokeColor=#0F8B8D;fontColor=#143642;" vertex="1" parent="1">
          <mxGeometry x="340" y="-390" width="120" height="60" as="geometry" />
        </mxCell>
        <mxCell id="hcQHmx9xs623-cWxPbAC-4" value="label&lt;br&gt;id&lt;br&gt;url&lt;br&gt;children" style="rounded=1;whiteSpace=wrap;html=1;labelBackgroundColor=none;fillColor=#FAE5C7;strokeColor=#0F8B8D;fontColor=#143642;" vertex="1" parent="1">
          <mxGeometry x="260" y="-250" width="120" height="60" as="geometry" />
        </mxCell>
        <mxCell id="hcQHmx9xs623-cWxPbAC-5" value="label&lt;br&gt;id&lt;br&gt;url&lt;br&gt;children" style="rounded=1;whiteSpace=wrap;html=1;labelBackgroundColor=none;fillColor=#FAE5C7;strokeColor=#0F8B8D;fontColor=#143642;" vertex="1" parent="1">
          <mxGeometry x="440" y="-250" width="120" height="60" as="geometry" />
        </mxCell>
      </root>
    </mxGraphModel>
  </diagram>
</mxfile>
